<svg width="1600" height="1050" viewBox="0 0 1600 1050" fill="none" xmlns="http://www.w3.org/2000/svg">
  <defs>
    <linearGradient id="sky" x1="0" y1="0" x2="0" y2="1050" gradientUnits="userSpaceOnUse">
      <stop stop-color="#F7F0E4"/>
      <stop offset="0.5" stop-color="#D8C7AB"/>
      <stop offset="1" stop-color="#101812"/>
    </linearGradient>
    <linearGradient id="facade" x1="370" y1="120" x2="1160" y2="910" gradientUnits="userSpaceOnUse">
      <stop stop-color="#FAF7EF"/>
      <stop offset="0.46" stop-color="#D8CDBA"/>
      <stop offset="1" stop-color="#AD9E85"/>
    </linearGradient>
    <linearGradient id="glass" x1="0" y1="0" x2="1" y2="1">
      <stop stop-color="#D5E4E5"/>
      <stop offset="1" stop-color="#75898A"/>
    </linearGradient>
    <linearGradient id="gold" x1="0" y1="0" x2="1" y2="1">
      <stop stop-color="#F7D987"/>
      <stop offset="1" stop-color="#B7863D"/>
    </linearGradient>
    <filter id="shadow" x="-20%" y="-20%" width="140%" height="140%">
      <feDropShadow dx="0" dy="34" stdDeviation="30" flood-color="#07100B" flood-opacity="0.34"/>
    </filter>
  </defs>
  <rect width="1600" height="1050" fill="url(#sky)"/>
  <circle cx="1320" cy="170" r="210" fill="#F4CE7A" opacity="0.18"/>
  <circle cx="228" cy="150" r="170" fill="#FFFFFF" opacity="0.3"/>
  <path d="M0 820C250 752 440 820 640 770C870 710 1000 680 1210 728C1395 770 1490 740 1600 710V1050H0V820Z" fill="#18251B"/>
  <path d="M0 910C260 850 500 910 745 845C980 782 1210 828 1600 782V1050H0V910Z" fill="#0B120E"/>

  <g filter="url(#shadow)">
    <path d="M310 250H1290V890H310V250Z" fill="url(#facade)"/>
    <path d="M270 250L800 110L1330 250H1290L800 156L310 250H270Z" fill="#EEE6D7"/>
    <rect x="310" y="250" width="980" height="76" fill="#101812"/>
    <rect x="600" y="148" width="400" height="96" rx="18" fill="#101812"/>
    <text x="800" y="214" text-anchor="middle" font-family="Arial, Helvetica, sans-serif" font-size="60" font-weight="900" fill="url(#gold)" letter-spacing="10">VVIP</text>

    <g opacity="0.98">
      <rect x="370" y="374" width="132" height="98" rx="8" fill="#101812"/>
      <rect x="536" y="374" width="132" height="98" rx="8" fill="#101812"/>
      <rect x="702" y="374" width="132" height="98" rx="8" fill="#101812"/>
      <rect x="868" y="374" width="132" height="98" rx="8" fill="#101812"/>
      <rect x="1034" y="374" width="132" height="98" rx="8" fill="#101812"/>
      <rect x="386" y="390" width="100" height="66" fill="url(#glass)"/>
      <rect x="552" y="390" width="100" height="66" fill="url(#glass)"/>
      <rect x="718" y="390" width="100" height="66" fill="url(#glass)"/>
      <rect x="884" y="390" width="100" height="66" fill="url(#glass)"/>
      <rect x="1050" y="390" width="100" height="66" fill="url(#glass)"/>

      <rect x="370" y="518" width="132" height="98" rx="8" fill="#101812"/>
      <rect x="536" y="518" width="132" height="98" rx="8" fill="#101812"/>
      <rect x="702" y="518" width="132" height="98" rx="8" fill="#101812"/>
      <rect x="868" y="518" width="132" height="98" rx="8" fill="#101812"/>
      <rect x="1034" y="518" width="132" height="98" rx="8" fill="#101812"/>
      <rect x="386" y="534" width="100" height="66" fill="url(#glass)"/>
      <rect x="552" y="534" width="100" height="66" fill="url(#glass)"/>
      <rect x="718" y="534" width="100" height="66" fill="url(#glass)"/>
      <rect x="884" y="534" width="100" height="66" fill="url(#glass)"/>
      <rect x="1050" y="534" width="100" height="66" fill="url(#glass)"/>

      <rect x="370" y="662" width="132" height="98" rx="8" fill="#101812"/>
      <rect x="536" y="662" width="132" height="98" rx="8" fill="#101812"/>
      <rect x="702" y="662" width="132" height="98" rx="8" fill="#101812"/>
      <rect x="868" y="662" width="132" height="98" rx="8" fill="#101812"/>
      <rect x="1034" y="662" width="132" height="98" rx="8" fill="#101812"/>
      <rect x="386" y="678" width="100" height="66" fill="url(#glass)"/>
      <rect x="552" y="678" width="100" height="66" fill="url(#glass)"/>
      <rect x="718" y="678" width="100" height="66" fill="url(#glass)"/>
      <rect x="884" y="678" width="100" height="66" fill="url(#glass)"/>
      <rect x="1050" y="678" width="100" height="66" fill="url(#glass)"/>
    </g>

    <path d="M340 486H1210" stroke="#B7863D" stroke-width="8" opacity="0.55"/>
    <path d="M340 630H1210" stroke="#B7863D" stroke-width="8" opacity="0.55"/>
    <path d="M340 774H1210" stroke="#B7863D" stroke-width="8" opacity="0.55"/>

    <rect x="622" y="800" width="356" height="118" rx="18" fill="#0D1510"/>
    <path d="M722 800H878V918H722V800Z" fill="#B7863D"/>
    <path d="M746 824H854V918H746V824Z" fill="#1A211C"/>
    <text x="800" y="878" text-anchor="middle" font-family="Arial, Helvetica, sans-serif" font-size="30" font-weight="900" fill="#F7E7C0" letter-spacing="4">RAJ NAGAR</text>
  </g>

  <path d="M220 944H1380" stroke="#B7863D" stroke-width="8" stroke-linecap="round"/>
  <text x="800" y="1010" text-anchor="middle" font-family="Arial, Helvetica, sans-serif" font-size="34" font-weight="900" fill="#F4CE7A" letter-spacing="7">BRAND LAUNCH</text>
</svg>
